<mxfile host="app.diagrams.net" modified="2021-05-17T03:56:09.293Z" agent="5.0 (Windows NT 10.0; WOW64) AppleWebKit/537.36 (KHTML, like Gecko) Chrome/90.0.4430.212 Safari/537.36" etag="jwKlS260nORubaYLBo1o" version="14.6.13" type="github">
  <diagram id="Hg1ul6G-sdC4MCjC8eeo" name="Page-1">
    <mxGraphModel dx="1422" dy="882" grid="1" gridSize="10" guides="1" tooltips="1" connect="1" arrows="1" fold="1" page="1" pageScale="1" pageWidth="827" pageHeight="1169" math="0" shadow="0">
      <root>
        <mxCell id="0" />
        <mxCell id="1" parent="0" />
        <mxCell id="5ub4VMIx4VlBcrBRzNrZ-1" value="&lt;font style=&quot;font-size: 18px&quot;&gt;Uploader&lt;/font&gt;" style="rounded=0;whiteSpace=wrap;html=1;" vertex="1" parent="1">
          <mxGeometry x="100" y="110" width="120" height="50" as="geometry" />
        </mxCell>
        <mxCell id="5ub4VMIx4VlBcrBRzNrZ-2" value="&lt;font style=&quot;font-size: 18px&quot;&gt;Downloader&lt;br&gt;&lt;/font&gt;" style="rounded=0;whiteSpace=wrap;html=1;" vertex="1" parent="1">
          <mxGeometry x="320" y="110" width="120" height="50" as="geometry" />
        </mxCell>
        <mxCell id="5ub4VMIx4VlBcrBRzNrZ-3" value="" style="endArrow=classic;html=1;exitX=1;exitY=0.5;exitDx=0;exitDy=0;entryX=0;entryY=0.5;entryDx=0;entryDy=0;" edge="1" parent="1" source="5ub4VMIx4VlBcrBRzNrZ-1" target="5ub4VMIx4VlBcrBRzNrZ-2">
          <mxGeometry width="50" height="50" relative="1" as="geometry">
            <mxPoint x="390" y="470" as="sourcePoint" />
            <mxPoint x="440" y="420" as="targetPoint" />
          </mxGeometry>
        </mxCell>
        <mxCell id="5ub4VMIx4VlBcrBRzNrZ-4" value="&lt;font style=&quot;font-size: 18px&quot;&gt;Uploader&lt;/font&gt;" style="rounded=0;whiteSpace=wrap;html=1;" vertex="1" parent="1">
          <mxGeometry x="100" y="170" width="120" height="50" as="geometry" />
        </mxCell>
        <mxCell id="5ub4VMIx4VlBcrBRzNrZ-5" value="&lt;font style=&quot;font-size: 18px&quot;&gt;Downloader&lt;br&gt;&lt;/font&gt;" style="rounded=0;whiteSpace=wrap;html=1;" vertex="1" parent="1">
          <mxGeometry x="320" y="170" width="120" height="50" as="geometry" />
        </mxCell>
        <mxCell id="5ub4VMIx4VlBcrBRzNrZ-6" value="" style="endArrow=classic;html=1;exitX=1;exitY=0.5;exitDx=0;exitDy=0;entryX=0;entryY=0.5;entryDx=0;entryDy=0;" edge="1" parent="1" source="5ub4VMIx4VlBcrBRzNrZ-4" target="5ub4VMIx4VlBcrBRzNrZ-5">
          <mxGeometry width="50" height="50" relative="1" as="geometry">
            <mxPoint x="390" y="530" as="sourcePoint" />
            <mxPoint x="440" y="480" as="targetPoint" />
          </mxGeometry>
        </mxCell>
        <mxCell id="5ub4VMIx4VlBcrBRzNrZ-7" value="&lt;font style=&quot;font-size: 18px&quot;&gt;Uploader&lt;/font&gt;" style="rounded=0;whiteSpace=wrap;html=1;" vertex="1" parent="1">
          <mxGeometry x="100" y="250" width="120" height="50" as="geometry" />
        </mxCell>
        <mxCell id="5ub4VMIx4VlBcrBRzNrZ-8" value="&lt;font style=&quot;font-size: 18px&quot;&gt;Downloader&lt;br&gt;&lt;/font&gt;" style="rounded=0;whiteSpace=wrap;html=1;" vertex="1" parent="1">
          <mxGeometry x="320" y="250" width="120" height="50" as="geometry" />
        </mxCell>
        <mxCell id="5ub4VMIx4VlBcrBRzNrZ-9" value="" style="endArrow=classic;html=1;exitX=1;exitY=0.5;exitDx=0;exitDy=0;entryX=0;entryY=0.5;entryDx=0;entryDy=0;" edge="1" parent="1" source="5ub4VMIx4VlBcrBRzNrZ-7" target="5ub4VMIx4VlBcrBRzNrZ-8">
          <mxGeometry width="50" height="50" relative="1" as="geometry">
            <mxPoint x="390" y="570" as="sourcePoint" />
            <mxPoint x="440" y="520" as="targetPoint" />
          </mxGeometry>
        </mxCell>
        <mxCell id="5ub4VMIx4VlBcrBRzNrZ-10" value="&lt;font style=&quot;font-size: 18px&quot;&gt;...&lt;/font&gt;" style="text;html=1;strokeColor=none;fillColor=none;align=center;verticalAlign=middle;whiteSpace=wrap;rounded=0;" vertex="1" parent="1">
          <mxGeometry x="230" y="220" width="80" height="20" as="geometry" />
        </mxCell>
        <mxCell id="5ub4VMIx4VlBcrBRzNrZ-11" value="&lt;font style=&quot;font-size: 18px&quot;&gt;Uploader&lt;/font&gt;" style="rounded=0;whiteSpace=wrap;html=1;" vertex="1" parent="1">
          <mxGeometry x="90" y="370" width="120" height="50" as="geometry" />
        </mxCell>
        <mxCell id="5ub4VMIx4VlBcrBRzNrZ-12" value="&lt;font style=&quot;font-size: 18px&quot;&gt;Uploader&lt;/font&gt;" style="rounded=0;whiteSpace=wrap;html=1;" vertex="1" parent="1">
          <mxGeometry x="90" y="430" width="120" height="50" as="geometry" />
        </mxCell>
        <mxCell id="5ub4VMIx4VlBcrBRzNrZ-13" value="&lt;font style=&quot;font-size: 18px&quot;&gt;Uploader&lt;/font&gt;" style="rounded=0;whiteSpace=wrap;html=1;" vertex="1" parent="1">
          <mxGeometry x="90" y="510" width="120" height="50" as="geometry" />
        </mxCell>
        <mxCell id="5ub4VMIx4VlBcrBRzNrZ-14" value="&lt;font style=&quot;font-size: 18px&quot;&gt;...&lt;/font&gt;" style="text;html=1;strokeColor=none;fillColor=none;align=center;verticalAlign=middle;whiteSpace=wrap;rounded=0;" vertex="1" parent="1">
          <mxGeometry x="110" y="480" width="80" height="20" as="geometry" />
        </mxCell>
        <mxCell id="5ub4VMIx4VlBcrBRzNrZ-15" value="&lt;font style=&quot;font-size: 18px&quot;&gt;Cosmos&lt;/font&gt;" style="rounded=0;whiteSpace=wrap;html=1;" vertex="1" parent="1">
          <mxGeometry x="280" y="450" width="120" height="50" as="geometry" />
        </mxCell>
        <mxCell id="5ub4VMIx4VlBcrBRzNrZ-17" value="" style="endArrow=classic;html=1;exitX=1;exitY=0.5;exitDx=0;exitDy=0;entryX=0;entryY=0.5;entryDx=0;entryDy=0;" edge="1" parent="1" source="5ub4VMIx4VlBcrBRzNrZ-11" target="5ub4VMIx4VlBcrBRzNrZ-15">
          <mxGeometry width="50" height="50" relative="1" as="geometry">
            <mxPoint x="230" y="440" as="sourcePoint" />
            <mxPoint x="280" y="390" as="targetPoint" />
          </mxGeometry>
        </mxCell>
        <mxCell id="5ub4VMIx4VlBcrBRzNrZ-18" value="" style="endArrow=classic;html=1;exitX=1;exitY=0.5;exitDx=0;exitDy=0;entryX=0;entryY=0.5;entryDx=0;entryDy=0;" edge="1" parent="1" source="5ub4VMIx4VlBcrBRzNrZ-13" target="5ub4VMIx4VlBcrBRzNrZ-15">
          <mxGeometry width="50" height="50" relative="1" as="geometry">
            <mxPoint x="220" y="405" as="sourcePoint" />
            <mxPoint x="290" y="485" as="targetPoint" />
          </mxGeometry>
        </mxCell>
        <mxCell id="5ub4VMIx4VlBcrBRzNrZ-19" value="" style="endArrow=classic;html=1;exitX=1;exitY=0.5;exitDx=0;exitDy=0;entryX=0;entryY=0.5;entryDx=0;entryDy=0;" edge="1" parent="1" source="5ub4VMIx4VlBcrBRzNrZ-12" target="5ub4VMIx4VlBcrBRzNrZ-15">
          <mxGeometry width="50" height="50" relative="1" as="geometry">
            <mxPoint x="280" y="450" as="sourcePoint" />
            <mxPoint x="330" y="400" as="targetPoint" />
          </mxGeometry>
        </mxCell>
        <mxCell id="5ub4VMIx4VlBcrBRzNrZ-21" style="edgeStyle=orthogonalEdgeStyle;rounded=0;orthogonalLoop=1;jettySize=auto;html=1;" edge="1" parent="1" source="5ub4VMIx4VlBcrBRzNrZ-20" target="5ub4VMIx4VlBcrBRzNrZ-15">
          <mxGeometry relative="1" as="geometry" />
        </mxCell>
        <mxCell id="5ub4VMIx4VlBcrBRzNrZ-20" value="&lt;font style=&quot;font-size: 18px&quot;&gt;Downloader&lt;br&gt;&lt;/font&gt;" style="rounded=0;whiteSpace=wrap;html=1;" vertex="1" parent="1">
          <mxGeometry x="470" y="450" width="120" height="50" as="geometry" />
        </mxCell>
      </root>
    </mxGraphModel>
  </diagram>
</mxfile>
